#!OML:ASF F:\VICON\USERDATA\INSTALL\rory3\rory3.ASF
:FULLY-SPECIFIED
:DEGREES
695
root 0.12831 17.5467 -1.35954 11.2798 1.34775 4.22825
lowerback 8.28563 -0.965272 0.172307
upperback 2.10969 -1.29873 -1.16452
thorax -2.49185 -0.646462 -1.16507
lowerneck -14.5704 -11.0261 -14.4593
upperneck -7.89617 -12.4213 17.2226
head 2.06821 -5.65137 6.70994
rclavicle -5.96354e-016 1.0138e-014
rhumerus 12.7554 16.2169 -35.5799
rradius 113.604
rwrist 15.5992
rhand -21.7222 21.5311
rfingers 7.12502
rthumb 4.677 -8.39728
lclavicle -5.96354e-016 1.0138e-014
lhumerus 21.6258 -43.2006 59.9719
lradius 94.765
lwrist 14.4553
lhand 17.2329 19.0361
lfingers 7.12502
lthumb 41.9491 43.6432
rfemur -17.2778 14.8975 11.0109
rtibia 17.6076
rfoot -9.30639 -17.9635
rtoes -14.32
lfemur -12.8524 -15.2321 -20.1167
ltibia 6.05449
lfoot -4.67306 7.33611
ltoes -20.1508
696
root 0.140473 17.5459 -1.3801 11.6221 1.32856 4.37152
lowerback 8.28645 -0.971986 0.225471
upperback 2.23664 -1.29925 -1.07779
thorax -2.36032 -0.646045 -1.10655
lowerneck -14.6654 -11.1239 -14.5612
upperneck -7.71541 -12.5506 17.4812
head 2.18602 -5.70408 6.78133
rclavicle -1.12313e-014 -3.37934e-015
rhumerus 12.3482 16.3025 -38.3037
rradius 111.733
rwrist 16.046
rhand -21.7093 21.655
rfingers 7.12502
rthumb 4.68952 -8.27306
lclavicle -1.12313e-014 -3.37934e-015
lhumerus 21.642 -44.2246 61.0214
lradius 91.6879
lwrist 13.9947
lhand 17.5631 19.2129
lfingers 7.12502
lthumb 42.2585 43.7157
rfemur -17.896 15.0115 10.6513
rtibia 17.8875
rfoot -9.33893 -18.1599
rtoes -14.2453
lfemur -13.1815 -15.2289 -20.1843
ltibia 5.74819
lfoot -4.37207 7.27749
ltoes -20.1913
697
root 0.153473 17.545 -1.4025 12.0126 1.23706 4.58818
lowerback 8.2607 -0.933057 0.117052
upperback 2.3642 -1.25152 -0.946467
thorax -2.20807 -0.621268 -0.916596
lowerneck -14.8932 -11.2591 -14.7135
upperneck -7.4571 -12.7115 17.6592
head 2.34664 -5.76453 6.82448
rclavicle 6.26172e-015 -3.18055e-015
rhumerus 12.0124 16.0383 -41.0366
rradius 109.749
rwrist 16.1119
rhand -20.8782 21.7531
rfingers 7.12502
rthumb 5.49193 -8.1557
lclavicle 6.26172e-015 -3.18055e-015
lhumerus 21.648 -45.1894 62.2097
lradius 88.4134
lwrist 13.294
lhand 17.8425 19.1044
lfingers 7.12502
lthumb 42.5202 43.5177
rfemur -18.5836 15.1175 10.1709
rtibia 18.1375
rfoot -9.45506 -18.2717
rtoes -13.6203
lfemur -13.571 -15.1747 -20.3396
ltibia 5.46203
lfoot -4.13096 7.22605
ltoes -19.9024
698
root 0.168632 17.5462 -1.42584 12.4073 1.27266 4.7166
lowerback 8.38854 -0.881553 0.0797137
upperback 2.34119 -1.1787 -0.657229
thorax -2.29452 -0.585128 -0.602466
lowerneck -14.7719 -11.3923 -15.1076
upperneck -7.29789 -12.8637 17.6837
head 2.42412 -5.83497 6.87447
rclavicle 3.04141e-014 8.34896e-015
rhumerus 11.4425 15.7342 -43.6667
rradius 107.707
rwrist 16.1974
rhand -20.0479 21.509
rfingers 7.12502
rthumb 6.29356 -8.37748
lclavicle 3.04141e-014 8.34896e-015
lhumerus 21.464 -46.2375 63.8811
lradius 84.9115
lwrist 12.4486
lhand 18.0891 19.3531
lfingers 7.12502
lthumb 42.751 43.6865
rfemur -19.2205 15.164 9.80491
rtibia 18.3542
rfoot -9.45624 -18.4511
rtoes -13.5554
lfemur -14.0024 -15.2275 -20.3753
ltibia 5.20624
lfoot -3.82861 7.19499
ltoes -19.367
699
root 0.182383 17.5466 -1.44691 12.7775 1.36327 4.80846
lowerback 8.51962 -0.780986 0.189099
upperback 2.28396 -1.0298 -0.425971
thorax -2.42211 -0.511591 -0.438348
lowerneck -14.398 -11.5443 -15.4076
upperneck -7.22323 -13.0823 17.6499
head 2.43813 -5.95431 6.89454
rclavicle -9.74045e-015 2.78299e-015
rhumerus 10.5181 15.1884 -46.4916
rradius 105.417
rwrist 16.8933
rhand -20.142 21.2966
rfingers 7.12502
rthumb 6.2027 -8.59256
lclavicle -9.74045e-015 2.78299e-015
lhumerus 21.3834 -47.5469 65.4857
lradius 81.3029
lwrist 11.4126
lhand 18.2156 19.7513
lfingers 7.12502
lthumb 42.8693 44.0432
rfemur -19.7888 15.1396 9.51716
rtibia 18.5538
rfoot -9.43878 -18.6114
rtoes -13.5815
lfemur -14.385 -15.3239 -20.356
ltibia 4.92368
lfoot -3.56285 7.14455
ltoes -19.1798
700
root 0.192108 17.5469 -1.47043 13.0315 1.47121 4.84014
lowerback 8.8051 -0.689168 0.432266
upperback 2.25797 -0.882602 -0.307273
thorax -2.60736 -0.439547 -0.464359
lowerneck -14.0201 -11.6167 -15.3944
upperneck -7.14889 -13.2421 17.564
head 2.41865 -6.0525 6.85778
rclavicle 1.59028e-014 7.95139e-015
rhumerus 9.32384 14.3639 -49.62
rradius 103.326
rwrist 17.5178
rhand -20.0251 20.924
rfingers 7.12502
rthumb 6.3156 -8.96183
lclavicle 1.59028e-014 7.95139e-015
lhumerus 21.2128 -48.9093 66.9321
lradius 77.7018
lwrist 10.0375
lhand 18.4979 19.885
lfingers 7.12502
lthumb 43.1333 44.0836
rfemur -20.1567 15.1608 9.34727
rtibia 18.6108
rfoot -9.34843 -18.7761
rtoes -13.6903
lfemur -14.5111 -15.4172 -20.2779
ltibia 4.38277
lfoot -3.13925 7.10014
ltoes -19.7468
701
root 0.202843 17.5479 -1.49171 13.3856 1.44543 4.89526
lowerback 8.99862 -0.578519 0.59862
upperback 2.19789 -0.716331 -0.192924
thorax -2.7752 -0.358201 -0.455711
lowerneck -13.7929 -11.6334 -15.3802
upperneck -6.9021 -13.3223 17.4631
head 2.45892 -6.10189 6.81639
rclavicle 1.2921e-014 -3.97569e-015
rhumerus 8.08768 13.4123 -52.8392
rradius 101.413
rwrist 17.7237
rhand -19.1817 20.0965
rfingers 7.12502
rthumb 7.1298 -9.76344
lclavicle 1.2921e-014 -3.97569e-015
lhumerus 20.7522 -50.0398 68.6642
lradius 74.0331
lwrist 8.41732
lhand 18.876 20.0076
lfingers 7.12502
lthumb 43.4866 44.0794
rfemur -20.7106 15.2345 9.09086
rtibia 18.7434
rfoot -9.2418 -18.9038
rtoes -13.8415
lfemur -14.8425 -15.3891 -20.239
ltibia 4.0892
lfoot -2.8746 7.06188
ltoes -19.7222
702
root 0.221297 17.5582 -1.50534 13.9797 1.35173 4.94502
lowerback 8.8246 -0.468469 0.780765
upperback 2.10052 -0.5497 -0.0226888
thorax -2.77741 -0.276697 -0.401784
lowerneck -13.7073 -11.6498 -15.3904
upperneck -6.59331 -13.3807 17.2368
head 2.52408 -6.13475 6.7356
rclavicle 2.38542e-015 1.59028e-015
rhumerus 7.13973 12.2851 -55.9613
rradius 99.0173
rwrist 18.2384
rhand -18.8023 19.5559
rfingers 7.12502
rthumb 7.49599 -10.2913
lclavicle 2.38542e-015 1.59028e-015
lhumerus 20.1205 -50.9752 70.7028
lradius 70.2608
lwrist 6.17772
lhand 19.018 20.0631
lfingers 7.12502
lthumb 43.6192 44.0865
rfemur -21.5326 15.3294 8.70748
rtibia 18.8797
rfoot -9.15138 -19.0308
rtoes -14.692
lfemur -15.2575 -15.3071 -20.1977
ltibia 3.49833
lfoot -2.44876 7.02125
ltoes -19.9055
703
root 0.236347 17.548 -1.52547 14.4133 1.50359 5.12376
lowerback 8.99598 -0.433942 0.91161
upperback 2.02617 -0.484622 0.130607
thorax -2.94822 -0.245711 -0.322646
lowerneck -13.7614 -11.6907 -15.2401
upperneck -6.28087 -13.4698 16.8184
head 2.5865 -6.18317 6.56124
rclavicle -1.03368e-014 1.59028e-015
rhumerus 6.39251 10.8649 -58.9365
rradius 96.4049
rwrist 19.0657
rhand -18.861 19.3381
rfingers 7.12502
rthumb 7.43934 -10.5111
lclavicle -1.03368e-014 1.59028e-015
lhumerus 19.7092 -52.0723 72.488
lradius 66.4922
lwrist 3.24821
lhand 18.9868 20.0821
lfingers 7.12502
lthumb 43.5901 44.1162
rfemur -22.0984 15.3864 8.26735
rtibia 18.9649
rfoot -9.00295 -19.3489
rtoes -15.2677
lfemur -14.7772 -15.4901 -20.2474
ltibia 1.46778
lfoot -1.31635 6.95941
ltoes -20.5586
704
root 0.245467 17.5472 -1.54805 14.7818 1.73153 5.37652
lowerback 9.30064 -0.531239 0.86529
upperback 2.00705 -0.606453 0.339211
thorax -3.13567 -0.305735 -0.0641186
lowerneck -14.0475 -11.6244 -15.1654
upperneck -5.91214 -13.3755 16.4303
head 2.68156 -6.12898 6.42107
rclavicle -9.93923e-015 -1.27222e-014
rhumerus 6.16131 9.66934 -61.6263
rradius 93.8437
rwrist 19.3335
rhand -18.6593 18.9628
rfingers 7.12502
rthumb 7.63398 -10.8795
lclavicle -9.93923e-015 -1.27222e-014
lhumerus 19.4457 -52.8507 74.1177
lradius 62.3612
lwrist 0.000938541
lhand 19.062 19.9371
lfingers 7.12502
lthumb 43.6603 43.9455
rfemur -22.5341 15.4308 7.81621
rtibia 18.9958
rfoot -8.82898 -19.7991
rtoes -15.1908
lfemur -14.5422 -15.7604 -20.3381
ltibia 4.14466e-014
lfoot -0.427598 6.8662
ltoes -19.7624
